<svg width="24" height="10" viewBox="0 0 24 10" fill="none" xmlns="http://www.w3.org/2000/svg">
<path d="M0.126 4.074H0.942V2.772C0.942 2.292 1.044 1.892 1.248 1.572C1.452 1.252 1.716 1.01 2.04 0.845999C2.364 0.681999 2.7 0.599999 3.048 0.599999C3.48 0.599999 3.808 0.658 4.032 0.774C4.26 0.89 4.404 0.976 4.464 1.032L3.768 2.37C3.748 2.338 3.698 2.292 3.618 2.232C3.538 2.172 3.432 2.142 3.3 2.142C3.216 2.142 3.132 2.164 3.048 2.208C2.964 2.252 2.894 2.33 2.838 2.442C2.786 2.554 2.76 2.718 2.76 2.934V4.074H3.978V5.574H2.76V9H0.942V5.574H0.126V4.074ZM4.8 9V4.074H6.624V9H4.8ZM5.736 3.06C5.448 3.06 5.204 2.96 5.004 2.76C4.804 2.556 4.704 2.314 4.704 2.034C4.704 1.754 4.804 1.512 5.004 1.308C5.208 1.1 5.452 0.995999 5.736 0.995999C5.924 0.995999 6.096 1.044 6.252 1.14C6.408 1.232 6.534 1.356 6.63 1.512C6.726 1.668 6.774 1.842 6.774 2.034C6.774 2.314 6.672 2.556 6.468 2.76C6.264 2.96 6.02 3.06 5.736 3.06ZM11.6008 6.354L13.6948 9H11.6728L10.5088 7.482L9.34481 9H7.46081L9.54881 6.498L7.67081 4.074H9.71081L10.6228 5.34L11.5768 4.074H13.4248L11.6008 6.354ZM16.4207 9.144C15.9447 9.144 15.5307 9.028 15.1787 8.796C14.8267 8.56 14.5527 8.246 14.3567 7.854C14.1647 7.458 14.0687 7.02 14.0687 6.54C14.0687 6.06 14.1647 5.624 14.3567 5.232C14.5527 4.836 14.8267 4.52 15.1787 4.284C15.5307 4.048 15.9447 3.93 16.4207 3.93C16.7367 3.93 17.0167 3.98 17.2607 4.08C17.5047 4.176 17.7027 4.292 17.8547 4.428C18.0067 4.56 18.0987 4.682 18.1307 4.794V0.744H19.9547V9H18.1487V8.202C18.0727 8.35 17.9487 8.498 17.7767 8.646C17.6047 8.79 17.4027 8.908 17.1707 9C16.9387 9.096 16.6887 9.144 16.4207 9.144ZM16.9787 7.71C17.1987 7.71 17.3947 7.66 17.5667 7.56C17.7427 7.46 17.8807 7.322 17.9807 7.146C18.0807 6.966 18.1307 6.764 18.1307 6.54C18.1307 6.316 18.0807 6.116 17.9807 5.94C17.8807 5.76 17.7427 5.62 17.5667 5.52C17.3947 5.416 17.1987 5.364 16.9787 5.364C16.7667 5.364 16.5747 5.416 16.4027 5.52C16.2347 5.62 16.1007 5.76 16.0007 5.94C15.9047 6.116 15.8567 6.316 15.8567 6.54C15.8567 6.764 15.9047 6.966 16.0007 7.146C16.1007 7.322 16.2347 7.46 16.4027 7.56C16.5747 7.66 16.7667 7.71 16.9787 7.71ZM22.2358 9.144C21.9398 9.144 21.6838 9.038 21.4678 8.826C21.2558 8.61 21.1498 8.354 21.1498 8.058C21.1498 7.754 21.2558 7.496 21.4678 7.284C21.6838 7.068 21.9398 6.96 22.2358 6.96C22.5398 6.96 22.7978 7.068 23.0098 7.284C23.2218 7.496 23.3278 7.754 23.3278 8.058C23.3278 8.354 23.2218 8.61 23.0098 8.826C22.7978 9.038 22.5398 9.144 22.2358 9.144Z" fill="white"/>
</svg>
